G04 (created by PCBNEW (2013-may-18)-stable) date Wed 23 Dec 2015 08:07:30 PM EST*
%MOIN*%
G04 Gerber Fmt 3.4, Leading zero omitted, Abs format*
%FSLAX34Y34*%
G01*
G70*
G90*
G04 APERTURE LIST*
%ADD10C,0.00590551*%
%ADD11C,0.00726378*%
%ADD12C,0.055*%
%ADD13R,0.055X0.055*%
%ADD14R,0.07X0.07*%
%ADD15C,0.07*%
%ADD16R,0.06X0.06*%
%ADD17C,0.06*%
%ADD18C,0.045*%
%ADD19C,0.01*%
G04 APERTURE END LIST*
G54D10*
G54D11*
X55892Y-35035D02*
X55892Y-35425D01*
X55892Y-35053D02*
X55930Y-35035D01*
X56004Y-35035D01*
X56041Y-35053D01*
X56060Y-35072D01*
X56078Y-35109D01*
X56078Y-35221D01*
X56060Y-35258D01*
X56041Y-35276D01*
X56004Y-35295D01*
X55930Y-35295D01*
X55892Y-35276D01*
X56246Y-35295D02*
X56246Y-35035D01*
X56246Y-34905D02*
X56227Y-34923D01*
X56246Y-34942D01*
X56264Y-34923D01*
X56246Y-34905D01*
X56246Y-34942D01*
X56413Y-35183D02*
X56599Y-35183D01*
X56376Y-35295D02*
X56506Y-34905D01*
X56636Y-35295D01*
X56767Y-35295D02*
X56767Y-35035D01*
X56767Y-35072D02*
X56785Y-35053D01*
X56822Y-35035D01*
X56878Y-35035D01*
X56915Y-35053D01*
X56934Y-35091D01*
X56934Y-35295D01*
X56934Y-35091D02*
X56953Y-35053D01*
X56990Y-35035D01*
X57046Y-35035D01*
X57083Y-35053D01*
X57101Y-35091D01*
X57101Y-35295D01*
X57287Y-35035D02*
X57287Y-35425D01*
X57287Y-35053D02*
X57325Y-35035D01*
X57399Y-35035D01*
X57436Y-35053D01*
X57455Y-35072D01*
X57473Y-35109D01*
X57473Y-35221D01*
X57455Y-35258D01*
X57436Y-35276D01*
X57399Y-35295D01*
X57325Y-35295D01*
X57287Y-35276D01*
X57882Y-34905D02*
X58013Y-35295D01*
X58143Y-34905D01*
X58478Y-35295D02*
X58254Y-35295D01*
X58366Y-35295D02*
X58366Y-34905D01*
X58329Y-34960D01*
X58292Y-34998D01*
X58254Y-35016D01*
X58645Y-35258D02*
X58664Y-35276D01*
X58645Y-35295D01*
X58626Y-35276D01*
X58645Y-35258D01*
X58645Y-35295D01*
X58905Y-34905D02*
X58943Y-34905D01*
X58980Y-34923D01*
X58998Y-34942D01*
X59017Y-34979D01*
X59035Y-35053D01*
X59035Y-35146D01*
X59017Y-35221D01*
X58998Y-35258D01*
X58980Y-35276D01*
X58943Y-35295D01*
X58905Y-35295D01*
X58868Y-35276D01*
X58850Y-35258D01*
X58831Y-35221D01*
X58812Y-35146D01*
X58812Y-35053D01*
X58831Y-34979D01*
X58850Y-34942D01*
X58868Y-34923D01*
X58905Y-34905D01*
G54D12*
X51650Y-41537D03*
X48650Y-41537D03*
X46650Y-35337D03*
X49650Y-35337D03*
X49450Y-46537D03*
X46450Y-46537D03*
X54350Y-41037D03*
X54350Y-44037D03*
X48750Y-43137D03*
X48750Y-45137D03*
X52750Y-35337D03*
X50750Y-35337D03*
G54D13*
X49250Y-39237D03*
G54D12*
X50250Y-39237D03*
X51250Y-39237D03*
X52250Y-39237D03*
X52250Y-36237D03*
X51250Y-36237D03*
X50250Y-36237D03*
X49250Y-36237D03*
G54D13*
X49850Y-45437D03*
G54D12*
X50850Y-45437D03*
X51850Y-45437D03*
X52850Y-45437D03*
X52850Y-42437D03*
X51850Y-42437D03*
X50850Y-42437D03*
X49850Y-42437D03*
G54D14*
X56400Y-43337D03*
G54D15*
X58400Y-43337D03*
G54D14*
X56400Y-38537D03*
G54D15*
X58400Y-38537D03*
G54D16*
X46350Y-40937D03*
G54D17*
X47350Y-40937D03*
X46600Y-36937D03*
X47600Y-37937D03*
X46600Y-38937D03*
X47100Y-44737D03*
X46100Y-43737D03*
X47100Y-42737D03*
G54D12*
X48750Y-40337D03*
X50750Y-40337D03*
X50550Y-46537D03*
X52550Y-46537D03*
G54D13*
X52450Y-40737D03*
G54D12*
X53450Y-40737D03*
G54D13*
X53950Y-38037D03*
G54D12*
X53950Y-39037D03*
G54D16*
X54150Y-45737D03*
G54D17*
X55150Y-45737D03*
G54D16*
X54550Y-35637D03*
G54D17*
X54550Y-36637D03*
G54D18*
X60500Y-38937D03*
X44750Y-40937D03*
X44750Y-42937D03*
X60500Y-41937D03*
X60500Y-42937D03*
X44750Y-37937D03*
X44750Y-41937D03*
X60500Y-39937D03*
X44750Y-38937D03*
G54D19*
X44750Y-37937D02*
X44800Y-37900D01*
X44800Y-37900D02*
X46300Y-39400D01*
X46300Y-39400D02*
X46300Y-40200D01*
X46300Y-40200D02*
X46400Y-40300D01*
X46400Y-40300D02*
X46400Y-40900D01*
X46400Y-40900D02*
X46350Y-40937D01*
X51850Y-42437D02*
X51900Y-42400D01*
X51900Y-42400D02*
X52100Y-42200D01*
X52100Y-42200D02*
X52100Y-41200D01*
X52100Y-41200D02*
X52000Y-41200D01*
X52000Y-41200D02*
X52000Y-41100D01*
X52000Y-41100D02*
X51700Y-40800D01*
X51700Y-40800D02*
X51700Y-38900D01*
X51700Y-38900D02*
X51300Y-38500D01*
X51300Y-38500D02*
X51300Y-36200D01*
X51300Y-36200D02*
X51250Y-36237D01*
X48650Y-41537D02*
X48700Y-41500D01*
X48700Y-41500D02*
X49400Y-42200D01*
X49400Y-42200D02*
X49400Y-42700D01*
X49400Y-42700D02*
X50900Y-44200D01*
X50900Y-44200D02*
X50900Y-45400D01*
X50900Y-45400D02*
X50850Y-45437D01*
X48650Y-41537D02*
X48700Y-41500D01*
X48700Y-41500D02*
X50300Y-39900D01*
X50300Y-39900D02*
X50300Y-39200D01*
X50300Y-39200D02*
X50250Y-39237D01*
X47350Y-40937D02*
X47400Y-40900D01*
X47400Y-40900D02*
X46600Y-40100D01*
X46600Y-40100D02*
X46600Y-38937D01*
X55150Y-45737D02*
X55200Y-45700D01*
X55200Y-45700D02*
X54400Y-44900D01*
X54400Y-44900D02*
X54400Y-44000D01*
X54400Y-44000D02*
X54350Y-44037D01*
X60500Y-42937D02*
X60500Y-42900D01*
X60500Y-42900D02*
X60900Y-42500D01*
X60900Y-42500D02*
X60900Y-41700D01*
X60900Y-41700D02*
X60500Y-41300D01*
X60500Y-41300D02*
X60500Y-39937D01*
X44750Y-38937D02*
X44800Y-38900D01*
X44800Y-38900D02*
X45200Y-39300D01*
X45200Y-39300D02*
X45200Y-41100D01*
X45200Y-41100D02*
X45100Y-41200D01*
X45100Y-41200D02*
X45100Y-41300D01*
X45100Y-41300D02*
X44800Y-41600D01*
X44800Y-41600D02*
X44800Y-41900D01*
X44800Y-41900D02*
X44750Y-41937D01*
X47350Y-40937D02*
X47400Y-40900D01*
X47400Y-40900D02*
X47100Y-41200D01*
X47100Y-41200D02*
X47100Y-42737D01*
X48750Y-40337D02*
X48800Y-40300D01*
X48800Y-40300D02*
X47600Y-39100D01*
X47600Y-39100D02*
X47600Y-37937D01*
X49250Y-39237D02*
X49300Y-39200D01*
X49300Y-39200D02*
X48100Y-38000D01*
X48100Y-38000D02*
X48100Y-37700D01*
X48100Y-37700D02*
X46700Y-36300D01*
X46700Y-36300D02*
X46700Y-35300D01*
X46700Y-35300D02*
X46650Y-35337D01*
X49250Y-36237D02*
X49300Y-36200D01*
X49300Y-36200D02*
X49500Y-36200D01*
X49500Y-36200D02*
X49900Y-35800D01*
X49900Y-35800D02*
X52300Y-35800D01*
X52300Y-35800D02*
X52800Y-35300D01*
X52800Y-35300D02*
X52750Y-35337D01*
X52850Y-42437D02*
X52900Y-42400D01*
X52900Y-42400D02*
X52500Y-42000D01*
X52500Y-42000D02*
X52500Y-40700D01*
X52500Y-40700D02*
X52450Y-40737D01*
X52250Y-36237D02*
X52300Y-36200D01*
X52300Y-36200D02*
X54000Y-37900D01*
X54000Y-37900D02*
X54000Y-38000D01*
X54000Y-38000D02*
X53950Y-38037D01*
X49450Y-46537D02*
X49500Y-46500D01*
X49500Y-46500D02*
X49900Y-46100D01*
X49900Y-46100D02*
X49900Y-45400D01*
X49900Y-45400D02*
X49850Y-45437D01*
X50750Y-40337D02*
X50800Y-40300D01*
X50800Y-40300D02*
X51300Y-39800D01*
X51300Y-39800D02*
X51300Y-39200D01*
X51300Y-39200D02*
X51250Y-39237D01*
X52550Y-46537D02*
X52600Y-46500D01*
X52600Y-46500D02*
X51900Y-45800D01*
X51900Y-45800D02*
X51900Y-45400D01*
X51900Y-45400D02*
X51850Y-45437D01*
X54150Y-45737D02*
X54200Y-45700D01*
X54200Y-45700D02*
X50900Y-42400D01*
X50900Y-42400D02*
X50850Y-42437D01*
M02*
